<svg xmlns="http://www.w3.org/2000/svg" viewBox="0 0 700 150"><g transform="translate(-47 -269)"><g transform="translate(199 269)"><text transform="translate(0 122)" fill="#ed664c" font-size="113" font-family="Avenir, YuGothicUI-Bold, Yu Gothic UI" font-weight="700"><tspan x="0" y="0">rangejuice</tspan></text></g><g transform="translate(-255 5)"><path d="M52,0c28.719,0,52,3.714,52,8.3s-23.281,8.3-52,8.3S0,12.878,0,8.3,23.281,0,52,0Z" transform="translate(302 397.081)" fill="#ed664c"/><g transform="translate(332.621 291.673)" fill="none"><path d="M58.69,0A57.733,57.733,0,0,1,83.149,5.443c20.074,9.292,34.23,30.234,34.23,54.557,0,33.137-26.276,60-58.69,60S0,93.137,0,60,26.276,0,58.69,0Z" stroke="none"/><path d="M 58.68960571289063 14 C 34.04766082763672 14 13.99998474121094 34.635498046875 13.99998474121094 60 C 13.99998474121094 85.364501953125 34.04766082763672 106 58.68960571289063 106 C 83.33154296875 106 103.3792266845703 85.364501953125 103.3792266845703 60 C 103.3792266845703 41.91820526123047 93.12992858886719 25.490234375 77.26628112792969 18.14702606201172 C 71.32366943359375 15.395263671875 65.07354736328125 14 58.68960571289063 14 M 58.68960571289063 0 C 67.31157684326172 0 75.49928283691406 1.900703430175781 83.14898681640625 5.442939758300781 C 103.2227554321289 14.73500061035156 117.3792266845703 35.67738342285156 117.3792266845703 60 C 117.3792266845703 93.1370849609375 91.10298919677734 120 58.68960571289063 120 C 26.27622222900391 120 -1.52587890625e-05 93.1370849609375 -1.52587890625e-05 60 C -1.52587890625e-05 26.8629150390625 26.27622222900391 0 58.68960571289063 0 Z" stroke="none" fill="#ed664c"/></g><g transform="translate(404.553 357.224)"><path d="M365.636,301a4.406,4.406,0,1,0,4.636,4.4A4.528,4.528,0,0,0,365.636,301Z" transform="translate(-348.136 -301)" fill="#ed664c"/><path d="M330.636,361a4.406,4.406,0,1,0,4.636,4.4A4.528,4.528,0,0,0,330.636,361Z" transform="translate(-319.568 -348.893)" fill="#ed664c"/><path d="M295.636,301a4.406,4.406,0,1,0,4.636,4.4A4.528,4.528,0,0,0,295.636,301Z" transform="translate(-291 -301)" fill="#ed664c"/></g><path d="M88.156,533.345c4.9-17.217-16.162-18.611-16.162-18.611V504.45s29.159,1.7,27.916,28.9" transform="translate(292.286 -238.777)" fill="#ed664c"/></g></g></svg>